<?xml version="1.0" standalone="no"?><!DOCTYPE svg PUBLIC "-//W3C//DTD SVG 1.1//EN" "http://www.w3.org/Graphics/SVG/1.1/DTD/svg11.dtd"><svg t="1648734659753" class="icon" viewBox="0 0 1024 1024" version="1.1" xmlns="http://www.w3.org/2000/svg" p-id="3601" xmlns:xlink="http://www.w3.org/1999/xlink" width="200" height="200"><defs><style type="text/css">@font-face { font-family: feedback-iconfont; src: url("//at.alicdn.com/t/font_1031158_u69w8yhxdu.woff2?t=1630033759944") format("woff2"), url("//at.alicdn.com/t/font_1031158_u69w8yhxdu.woff?t=1630033759944") format("woff"), url("//at.alicdn.com/t/font_1031158_u69w8yhxdu.ttf?t=1630033759944") format("truetype"); }
</style></defs><path d="M724.958956 608.283614a94.661552 94.661552 0 0 1-7.967186 6.225787c-1.240605 0.933299-2.515354 1.821071-3.778722 2.731606-181.151047 128.021298-199.57801 277.485708-201.148685 317.219204 0-0.409741 0-0.751192-0.079671-1.13817-10.869518-161.415189-141.041956-272.022495-188.036973-306.873243a341.45083 341.45083 0 1 1 401.011237-18.165184zM512.030218 944.680972s-0.182107-3.676287 0.079672-10.243525C525.244366 1129.73594 512.030218 944.680972 512.030218 944.680972z" fill="#42A0F9" p-id="3602"></path><path d="M512.030218 0.000341a341.38254 341.38254 0 0 1 212.928738 608.283273 94.661552 94.661552 0 0 1-7.967186 6.225787c-1.240605 0.933299-2.515354 1.821071-3.778722 2.731606a629.76053 629.76053 0 0 0-33.997121 25.813683L273.959318 96.744743A340.244371 340.244371 0 0 1 512.030218 0.000341z" fill="#FFFFFF" opacity=".2" p-id="3603"></path><path d="M516.321117 126.223332c20.48705-8.820813 66.36666 42.31714 89.517026 59.355536 26.712837 19.656186 50.807884 42.203323 77.031307 61.461149a117.800536 117.800536 0 0 1 27.06567 22.524373c10.061418 14.796203 6.24855 45.720266 6.24855 69.58768V459.820793a392.554638 392.554638 0 0 1-2.08285 67.538974 31.231369 31.231369 0 0 1-8.3314 4.09741c-11.063007 3.255165-83.211567 2.048705-104.085595 2.048705H328.955665c-9.936219-4.359189-10.323197-23.286947-10.391487-45.845465V316.536643a136.887638 136.887638 0 0 1 4.1657-42.98866c7.967186-20.62363 36.637674-32.927242 54.131338-45.025982 31.072026-21.500021 60.527851-48.087659 91.599876-69.599061 15.78641-10.903663 31.754927-21.36344 47.860025-32.699608z m33.314219 122.808482l-99.931276 96.209462v14.318172c20.48705 18.392818 38.982303 37.775844 58.285657 57.318212-0.295924 27.190868-17.971695 36.853926-20.817119 61.46115H489.26683c28.795687-29.672077 65.433361-53.732979 95.765576-81.868528v-10.243525c-17.892024-24.038138-52.526519-34.748313-54.131338-69.587679 9.754112-12.701971 18.904994-49.885966 22.91135-67.550356H549.58981z" fill="#FFFFFF" p-id="3604"></path></svg>