<?xml version="1.0" standalone="no"?><!DOCTYPE svg PUBLIC "-//W3C//DTD SVG 1.1//EN" "http://www.w3.org/Graphics/SVG/1.1/DTD/svg11.dtd"><svg t="1648734796832" class="icon" viewBox="0 0 1024 1024" version="1.1" xmlns="http://www.w3.org/2000/svg" p-id="4623" xmlns:xlink="http://www.w3.org/1999/xlink" width="200" height="200"><defs><style type="text/css">@font-face { font-family: feedback-iconfont; src: url("//at.alicdn.com/t/font_1031158_u69w8yhxdu.woff2?t=1630033759944") format("woff2"), url("//at.alicdn.com/t/font_1031158_u69w8yhxdu.woff?t=1630033759944") format("woff"), url("//at.alicdn.com/t/font_1031158_u69w8yhxdu.ttf?t=1630033759944") format("truetype"); }
</style></defs><path d="M355.9 898.1c80.3 0 263.5 29.8 263.5 29.8 478.8-187.6 177-595.2 65.9-658.8-7.2-4.1-25.1-13.5-28.8-16.6 8.4 7.1 5.5 14.2 16.9 32 37.1 58.3 3.7 78.2 5.1 116.8 0.1 2.6 0.4 5.8 0.8 8.2-19.3-107.6-72.9-183.8-129.9-233.7-60-52.5-123.1-75.9-123.1-75.9 1.1 8.9 1.8 21.5 3.6 29.7 33.3 145.7-42 245.6-122.6 344.3-3-50.3-62.8-121.1-62.4-118.5 1.1 8.7-5.1 40-6.5 45.9-17.3 71.6-41.2 95-71.8 186.2-40.2 120 19.2 214.7 189.3 310.6z m0 0" fill="#2280BF" p-id="4624"></path><path d="M339.4 929.9c80.3 0 175 0.1 278.9 0.1 432.6-244.8 107.6-611 51-652.3 18.8 41.3 22.5 111.1-15.7 145-64.5-244.6-224-294.7-224-294.7 18.8 126.1-68.4 264.1-152.5 367.1-3-50.3-6.1-85-32.5-133.1-5.9 91.4-75.7 165.9-94.7 257.4-25.6 124 19.2 214.7 189.3 310.6l0.2-0.1z m0 0" fill="#4EB3FF" p-id="4625"></path></svg>