<?xml version="1.0" standalone="no"?><!DOCTYPE svg PUBLIC "-//W3C//DTD SVG 1.1//EN" "http://www.w3.org/Graphics/SVG/1.1/DTD/svg11.dtd"><svg t="1648735010984" class="icon" viewBox="0 0 1024 1024" version="1.1" xmlns="http://www.w3.org/2000/svg" p-id="6937" data-spm-anchor-id="a313x.7781069.0.i22" xmlns:xlink="http://www.w3.org/1999/xlink" width="200" height="200"><defs><style type="text/css">@font-face { font-family: feedback-iconfont; src: url("//at.alicdn.com/t/font_1031158_u69w8yhxdu.woff2?t=1630033759944") format("woff2"), url("//at.alicdn.com/t/font_1031158_u69w8yhxdu.woff?t=1630033759944") format("woff"), url("//at.alicdn.com/t/font_1031158_u69w8yhxdu.ttf?t=1630033759944") format("truetype"); }
</style></defs><path d="M514.886892 965.584738c-122.848492 0-239.466338-79.600246-346.805169-236.77243-15.336369-22.453169-9.562585-53.086523 12.890585-68.418954 22.457108-15.336369 53.086523-9.558646 68.418954 12.886646 89.844185 131.548554 181.381908 196.678892 271.694769 193.736862 148.196431-4.907323 258.5088-189.054031 259.603692-190.916924 13.800369-23.390523 43.961108-31.224123 67.363446-17.467076 23.414154 13.757046 31.287138 43.842954 17.569477 67.2768-5.553231 9.487754-138.346338 232.448-340.806892 239.493907-3.308308 0.118154-6.628431 0.181169-9.928862 0.181169z" fill="#1296db" p-id="6938" data-spm-anchor-id="a313x.7781069.0.i23" class="selected"></path><path d="M874.338462 608.492308h-108.307693c-27.1872 0-49.230769-22.043569-49.230769-49.23077s22.043569-49.230769 49.230769-49.230769h77.879139l56.694154-113.384369-395.795693-240.183138-375.969477 240.4864L178.002708 510.030769H620.307692c27.1872 0 49.230769 22.043569 49.23077 49.230769s-22.043569 49.230769-49.23077 49.23077H145.723077a49.226831 49.226831 0 0 1-45.146585-29.601477l-78.76923-181.169231a49.230769 49.230769 0 0 1 18.621046-61.101292l437.16923-279.63077a49.215015 49.215015 0 0 1 52.066462-0.6144l460.8 279.63077a49.234708 49.234708 0 0 1 18.495015 64.106338l-90.584615 181.169231A49.246523 49.246523 0 0 1 874.338462 608.492308z" fill="#1296db" p-id="6939" data-spm-anchor-id="a313x.7781069.0.i21" class="selected"></path><path d="M505.623631 209.8176l43.094646 87.315692L645.076677 311.138462l-69.718646 67.969969 16.450954 95.972431-86.185354-45.312-86.193231 45.312 16.458831-95.972431L366.166646 311.138462l96.3584-14.00517z" fill="#eb491b" p-id="6940" data-spm-anchor-id="a313x.7781069.0.i20" class=""></path></svg>